<?xml version="1.0" encoding="UTF-8"?>
<svg id="Camada_1" data-name="Camada 1" xmlns="http://www.w3.org/2000/svg" xmlns:xlink="http://www.w3.org/1999/xlink" viewBox="0 0 1080 1350">
  <defs>
    <style>
      .cls-1 {
        letter-spacing: -.02em;
      }

      .cls-2 {
        stroke: #000;
        stroke-miterlimit: 10;
        stroke-width: 1.18px;
      }

      .cls-2, .cls-3 {
        fill: none;
      }

      .cls-4 {
        letter-spacing: 0em;
      }

      .cls-5 {
        clip-path: url(#clippath-1);
      }

      .cls-6 {
        fill: #0b3a00;
        font-family: Recursive-SansLinearLight, Recursive;
        font-size: 153.83px;
        font-variation-settings: 'MONO' 0, 'CASL' 0, 'wght' 300, 'slnt' 0, 'CRSV' 0;
        font-weight: 300;
      }

      .cls-7 {
        letter-spacing: 0em;
      }

      .cls-8 {
        clip-path: url(#clippath);
      }
    </style>
    <clipPath id="clippath">
      <rect class="cls-3" width="1080" height="1350"/>
    </clipPath>
    <clipPath id="clippath-1">
      <rect class="cls-3" width="1080" height="1350"/>
    </clipPath>
  </defs>
  <g class="cls-8">
    <path d="M401.03,575.21c-.82,2.76,1.12,4.99,3.33,6.35,1.32.82,2.82,1.36,4.24,1.98l4.96,2.17c6.47,2.82,12.94,5.67,19.43,8.46,12.67,5.44,25.66,10.44,39.47,11.88,7.6.8,15.33.42,22.74-1.51,2.21-.57,1.27-4-.94-3.42-25.47,6.62-50.73-6.19-73.48-16.11-3.46-1.51-6.92-3.02-10.38-4.53-1.32-.57-6.59-2.15-5.94-4.32.65-2.19-2.77-3.13-3.42-.94"/>
    <path d="M502.47,602.18c7.11-2.72,13.87-6.24,20.15-10.55,1.87-1.29.1-4.36-1.79-3.07-6.01,4.13-12.49,7.58-19.3,10.19-.9.34-1.51,1.2-1.24,2.18.24.86,1.28,1.59,2.18,1.24"/>
    <path d="M523.42,590.63l1.89-1.08c.21-.11.37-.26.5-.46.16-.17.26-.37.32-.6.07-.24.08-.47.03-.71-.01-.24-.08-.46-.21-.66-.24-.38-.61-.71-1.06-.82-.47-.11-.94-.06-1.37.18l-1.89,1.08c-.21.11-.37.26-.5.46-.16.17-.26.37-.32.6-.07.24-.09.47-.03.71.01.24.08.46.21.66.24.38.61.71,1.06.82.47.11.94.06,1.37-.18"/>
    <path d="M525.68,588.62c2.28,0,2.29-3.55,0-3.55s-2.29,3.55,0,3.55"/>
    <path d="M502.34,598.14c-.7.28-1.39.58-2.07.89-.26.12-.53.24-.79.36-.14.06-.29.12-.43.19.09-.04.41-.17.14-.06-.08.03-.17.07-.25.1-1.66.65-3.41,1.04-5.17,1.32-.92.15-1.51,1.34-1.24,2.18.32,1,1.2,1.4,2.18,1.24,1.76-.28,3.51-.67,5.17-1.32.69-.27,1.36-.57,2.03-.88.28-.13.55-.25.83-.38.13-.06.26-.11.39-.17-.59.26.01,0,.15-.06.86-.34,1.56-1.2,1.24-2.18-.27-.83-1.26-1.61-2.18-1.24"/>
    <path class="cls-2" d="M485.12,651.74c-.97-2.46-11.06-9.3-34.35-28.02-2.04-1.64-28.48-40.57-18.92-27.83,1.37,1.83,26.43,15.95,28.11,17.96,1.68,2.01,25.99,40.02,25.15,37.89Z"/>
    <path class="cls-2" d="M485.41,581.66c-.07-1.96,4.89-21.54,9.17-22.94-1.63-.15-22.17,8.71-24.18,18.04-6.81,23.15-16.1,22.59-14.53,23.06,2.32.69,29.88-8.62,29.54-18.15Z"/>
    <path d="M475.39,607.5s-.26-.02-.59-.05c-.32-.03-.59-.05-.59-.05,0,0,.26.02.59.05.33.03.59.05.59.05"/>
    <path class="cls-2" d="M544.58,644.58c-1.72-.75-21.79-7.89-28.95-8.53-7.16-.64-36.6-29.41-41.85-30.47-2.88-.58,23.48,3.29,42.47,16.87,5.85,4.18,31.03,23.31,28.34,22.14Z"/>
    <path class="cls-2" d="M511.33,570.91c.98-11.07.39-17.79,1.68-18.86,1.76-1.47-12.63,8.38-15.28,24.77,1.1,14.36.04,25.41-.28,23.15-1.09-7.82,12.89-17.99,13.88-29.06Z"/>
    <path class="cls-2" d="M579.56,552.06c-3.54-.32-27.75,4.65-38.99,10.77-5.52-.66-17.19,19.91-15.28,24.77.97,2.46,18.42-6.67,23.35-8.61,6.32-4.19,28.25-23.61,30.92-26.94Z"/>
    <path class="cls-2" d="M574.73,606.28c-7.07-.63-14.71,5.74-31.18,3.15-17.58-2.76-32.34-10.55-32.28-11.2.06-.65,16.83-3.25,33.43-1.76,16.6,1.48,30.68,9.87,30.03,9.81Z"/>
  </g>
  <text class="cls-6" transform="translate(228.55 747)"><tspan x="0" y="0">e</tspan><tspan class="cls-1" x="92.3" y="0">k</tspan><tspan class="cls-4" x="181.67" y="0">oo</tspan><tspan class="cls-7" x="366.27" y="0">b</tspan><tspan x="457.18" y="0">y</tspan></text>
  <g class="cls-5">
    <path d="M401.03,575.21c-.82,2.76,1.12,4.99,3.33,6.35,1.32.82,2.82,1.36,4.24,1.98l4.96,2.17c6.47,2.82,12.94,5.67,19.43,8.46,12.67,5.44,25.66,10.44,39.47,11.88,7.6.8,15.33.42,22.74-1.51,2.21-.57,1.27-4-.94-3.42-25.47,6.62-50.73-6.19-73.48-16.11-3.46-1.51-6.92-3.02-10.38-4.53-1.32-.57-6.59-2.15-5.94-4.32.65-2.19-2.77-3.13-3.42-.94"/>
    <path d="M502.47,602.18c7.11-2.72,13.87-6.24,20.15-10.55,1.87-1.29.1-4.36-1.79-3.07-6.01,4.13-12.49,7.58-19.3,10.19-.9.34-1.51,1.2-1.24,2.18.24.86,1.28,1.59,2.18,1.24"/>
    <path d="M523.42,590.63l1.89-1.08c.21-.11.37-.26.5-.46.16-.17.26-.37.32-.6.07-.24.08-.47.03-.71-.01-.24-.08-.46-.21-.66-.24-.38-.61-.71-1.06-.82-.47-.11-.94-.06-1.37.18l-1.89,1.08c-.21.11-.37.26-.5.46-.16.17-.26.37-.32.6-.07.24-.09.47-.03.71.01.24.08.46.21.66.24.38.61.71,1.06.82.47.11.94.06,1.37-.18"/>
    <path d="M525.68,588.62c2.28,0,2.29-3.55,0-3.55s-2.29,3.55,0,3.55"/>
    <path d="M502.34,598.14c-.7.28-1.39.58-2.07.89-.26.12-.53.24-.79.36-.14.06-.29.12-.43.19.09-.04.41-.17.14-.06-.08.03-.17.07-.25.1-1.66.65-3.41,1.04-5.17,1.32-.92.15-1.51,1.34-1.24,2.18.32,1,1.2,1.4,2.18,1.24,1.76-.28,3.51-.67,5.17-1.32.69-.27,1.36-.57,2.03-.88.28-.13.55-.25.83-.38.13-.06.26-.11.39-.17-.59.26.01,0,.15-.06.86-.34,1.56-1.2,1.24-2.18-.27-.83-1.26-1.61-2.18-1.24"/>
    <path class="cls-2" d="M485.12,651.74c-.97-2.46-11.06-9.3-34.35-28.02-2.04-1.64-28.48-40.57-18.92-27.83,1.37,1.83,26.43,15.95,28.11,17.96,1.68,2.01,25.99,40.02,25.15,37.89Z"/>
    <path class="cls-2" d="M485.41,581.66c-.07-1.96,4.89-21.54,9.17-22.94-1.63-.15-22.17,8.71-24.18,18.04-6.81,23.15-16.1,22.59-14.53,23.06,2.32.69,29.88-8.62,29.54-18.15Z"/>
    <path d="M475.39,607.5s-.26-.02-.59-.05c-.32-.03-.59-.05-.59-.05,0,0,.26.02.59.05.33.03.59.05.59.05"/>
    <path class="cls-2" d="M544.58,644.58c-1.72-.75-21.79-7.89-28.95-8.53-7.16-.64-36.6-29.41-41.85-30.47-2.88-.58,23.48,3.29,42.47,16.87,5.85,4.18,31.03,23.31,28.34,22.14Z"/>
    <path class="cls-2" d="M511.33,570.91c.98-11.07.39-17.79,1.68-18.86,1.76-1.47-12.63,8.38-15.28,24.77,1.1,14.36.04,25.41-.28,23.15-1.09-7.82,12.89-17.99,13.88-29.06Z"/>
    <path class="cls-2" d="M579.56,552.06c-3.54-.32-27.75,4.65-38.99,10.77-5.52-.66-17.19,19.91-15.28,24.77.97,2.46,18.42-6.67,23.35-8.61,6.32-4.19,28.25-23.61,30.92-26.94Z"/>
    <path class="cls-2" d="M574.73,606.28c-7.07-.63-14.71,5.74-31.18,3.15-17.58-2.76-32.34-10.55-32.28-11.2.06-.65,16.83-3.25,33.43-1.76,16.6,1.48,30.68,9.87,30.03,9.81Z"/>
  </g>
  <text class="cls-6" transform="translate(228.55 747)"><tspan x="0" y="0">e</tspan><tspan class="cls-1" x="92.3" y="0">k</tspan><tspan class="cls-4" x="181.67" y="0">oo</tspan><tspan class="cls-7" x="366.27" y="0">b</tspan><tspan x="457.18" y="0">y</tspan></text>
</svg>